<?xml version="1.0" encoding="UTF-8" standalone="no"?>
<!DOCTYPE svg PUBLIC "-//W3C//DTD SVG 1.1//EN" "http://www.w3.org/Graphics/SVG/1.1/DTD/svg11.dtd">
<svg width="100%" height="100%" viewBox="0 0 2000 2000" version="1.1" xmlns="http://www.w3.org/2000/svg" xmlns:xlink="http://www.w3.org/1999/xlink" xml:space="preserve" xmlns:serif="http://www.serif.com/" style="fill-rule:evenodd;clip-rule:evenodd;stroke-linejoin:round;stroke-miterlimit:2;">
    <g id="Gemini_Generated_Image_4i7m3q4i7m3q4i7m.png" transform="matrix(1.642606,0,0,1.642606,195.998203,288.018737)">
        <path d="M660.775,205.796C644.642,217.814 636.064,204.962 586.421,216.16C503.887,234.778 466.831,298.201 457.298,309.309C453.158,314.134 424.839,351.477 422.043,355.164C280.5,541.811 279.737,541.222 267.901,557.798C265.921,560.571 251.485,580.79 228.583,574.182C211.191,569.164 202.994,559.182 189.222,502.567C188.688,500.63 188.677,500.646 188.645,500.475C185.832,485.257 173.651,433.727 189.169,367.414C189.798,363.868 189.787,363.889 189.849,363.584C189.975,362.965 190.106,363.06 190.24,362.404C190.312,362.503 191.814,362.585 191.77,364.5C191.766,364.657 191.726,366.389 192.5,366.327C193.862,366.217 194.107,361.824 194.13,361.411C194.428,356.067 196.866,355.362 193.152,351.425C230.308,222.206 334.342,147.478 434.554,129.843C438.89,129.08 462.48,126.188 466.516,125.993C528.155,123.024 587.782,130.947 656.227,173.946C666.834,180.61 671.47,194.45 660.775,205.796Z"/>
        <path d="M326.401,657.23C339.712,653.762 358.94,660.385 400.533,649.598C452.499,636.121 493.135,593.406 499.609,586.601C520.396,564.75 625.389,423.474 684.649,346.609C716.012,305.929 720.842,293.732 743.496,293.748C749.872,293.752 766.297,297.324 774.023,314.723C787.144,344.267 832.386,477.11 745.355,604.392C694.832,678.28 634.371,705.788 614.257,715.01C599.785,721.646 562.553,733.762 547.518,735.581C544.404,733.072 543.989,733.861 532.592,734.97C532.419,734.987 531.224,735.103 530.5,735.532C528.638,736.636 528.342,735.405 526.5,736.409C526.084,736.636 526.031,737.33 525.589,737.5C525.283,737.617 525.254,737.2 521.5,737.783C520.591,737.924 520.555,737.964 520.5,738.025C519.707,738.911 520.282,739.144 519.533,739.981C484.448,742.266 484.476,741.898 449.454,738.858C449.716,738.641 450.209,739.161 450.471,738.944C451.267,738.284 451.168,735.013 446.46,734.769C439.422,734.404 439.469,732.892 432.5,734.09C432.131,734.063 429.514,733.867 428.156,732.5C426.871,731.206 427.114,730.696 425.471,730.704C419.151,730.734 418.021,728.526 416.5,730.122C416.02,730.626 415.954,731.476 415.399,731.896C415.143,732.09 414.72,731.471 414.464,731.665C369.96,720.749 322.596,694.56 316.901,686.23C311.465,678.279 314.408,669.963 314.881,668.627C317.432,661.42 325.227,657.779 326.401,657.23Z"/>
        <path d="M547.518,735.581C542.038,736.661 536.425,738.412 524.456,739.157C524.036,739.183 519.927,739.911 519.533,739.981C520.282,739.144 519.707,738.911 520.5,738.025C520.555,737.964 520.591,737.924 521.5,737.783C525.254,737.2 525.283,737.617 525.589,737.5C526.031,737.33 526.084,736.636 526.5,736.409C528.342,735.405 528.638,736.636 530.5,735.532C531.224,735.103 532.419,734.987 532.592,734.97C543.989,733.861 544.404,733.072 547.518,735.581Z"/>
        <path d="M431.505,735.48L432.5,734.09C439.469,732.892 439.422,734.404 446.46,734.769C451.168,735.013 451.267,738.284 450.471,738.944C450.209,739.161 449.716,738.641 449.454,738.858C436.752,736.852 432.918,735.849 431.505,735.48Z"/>
        <path d="M414.464,731.665C414.72,731.471 415.143,732.09 415.399,731.896C415.954,731.476 416.02,730.626 416.5,730.122C418.021,728.526 419.151,730.734 425.471,730.704C427.114,730.696 426.871,731.206 428.156,732.5C429.514,733.867 432.131,734.063 432.5,734.09L431.505,735.48C429.843,735.289 429.892,735.221 414.464,731.665Z"/>
        <path d="M193.152,351.425C196.866,355.362 194.428,356.067 194.13,361.411C194.107,361.824 193.862,366.217 192.5,366.327C191.726,366.389 191.766,364.657 191.77,364.5C191.814,362.585 190.312,362.503 190.24,362.404C191.182,358.415 192.905,352.3 193.152,351.425Z"/>
        <path d="M362.5,659.513C363.048,659.286 362.952,658.267 363.5,658.041C363.696,657.96 368.096,657.823 368.5,657.897C374.372,658.982 362.996,659.49 362.5,659.513Z"/>
    </g>
</svg>
